<svg width="273" height="44" viewBox="0 0 273 44" fill="none" xmlns="http://www.w3.org/2000/svg">
<path d="M235.451 0.47076L235.449 0.477374C235.278 0.465273 235.111 0.451602 234.949 0.438226C234.626 0.411625 234.317 0.386194 234.006 0.376611C233.05 0.346848 232.094 0.314795 231.138 0.282744C228.489 0.193917 225.841 0.10511 223.191 0.0651967C222.947 0.061541 222.703 0.0577911 222.46 0.0540408C219.325 0.00578374 216.186 -0.042549 213.059 0.10865C210.01 0.257115 207.32 1.5064 205.038 3.5487C202.553 5.77205 201.075 8.58565 200.289 11.7758C199.473 15.0859 198.668 18.399 197.863 21.7125L197.862 21.7132C197.142 24.6776 196.422 27.6425 195.693 30.6056C195.143 32.8289 194.732 35.0595 195.118 37.3553C195.427 39.2093 196.188 40.8352 197.665 42.0663C199.321 43.4496 201.297 44.0398 203.397 44.0036C208.539 43.9167 213.681 43.7777 218.823 43.6387C220.322 43.5982 221.822 43.5577 223.322 43.5184C223.69 43.5109 224.059 43.4789 224.43 43.4468C224.594 43.4326 224.758 43.4183 224.923 43.4062C225.198 42.2551 225.47 41.1122 225.743 39.9639L225.745 39.9583L225.746 39.953L225.747 39.9503C225.986 38.9465 226.226 37.9385 226.469 36.9171H225.789C224.431 36.9171 223.074 36.9176 221.716 36.918C217.646 36.9194 213.577 36.9208 209.507 36.9099C208.779 36.9063 208.041 36.8628 207.327 36.7361C205.672 36.4428 204.38 35.6317 204.052 33.8754C203.907 33.0824 203.903 32.217 204.059 31.4276C204.334 30.032 204.682 28.6512 205.03 27.2707L205.031 27.2665C205.14 26.8359 205.249 26.4052 205.355 25.9742C205.608 24.9519 205.861 23.9295 206.114 22.907L206.115 22.9031L206.116 22.8993C206.991 19.3572 207.866 15.8149 208.772 12.2792C209.347 10.0413 210.621 8.3539 212.914 7.58622C214.162 7.1698 215.457 7.09013 216.757 7.09013C222.248 7.08289 227.74 7.07927 233.231 7.09738C233.679 7.09738 233.846 6.96339 233.93 6.53973C234.03 6.03975 234.161 5.54831 234.292 5.05603L234.292 5.05554C234.352 4.83142 234.411 4.60691 234.468 4.38155C234.795 3.09097 235.119 1.80038 235.449 0.477374L235.458 0.478002L235.451 0.47076Z" fill="#ffffff"/>
<path d="M173.484 18.0838C173.486 18.0391 173.487 18.004 173.488 17.9752C173.49 17.9211 173.491 17.8894 173.498 17.8593C173.689 17.1016 173.881 16.3441 174.073 15.5867C174.734 12.9774 175.396 10.3684 176.041 7.75279C176.147 7.31825 176.307 7.16979 176.78 7.16979C181.047 7.18035 185.314 7.18229 189.581 7.18422C192.629 7.18561 195.677 7.18699 198.724 7.19152C199.099 7.19152 199.267 7.09737 199.35 6.72077C199.54 5.86796 199.748 5.01847 199.956 4.1678C200.056 3.76149 200.155 3.35492 200.253 2.94759C200.391 2.37627 200.527 1.80349 200.663 1.22742C200.742 0.894341 200.821 0.560158 200.901 0.224517H169.873C166.288 14.7451 162.711 29.2332 159.123 43.7538H190.092C190.524 42.0047 190.955 40.2538 191.394 38.4749L191.901 36.4174H168.971C168.981 36.3582 168.988 36.3076 168.994 36.2627L168.994 36.2623C169.004 36.1948 169.012 36.14 169.025 36.0879C169.204 35.3595 169.383 34.6311 169.563 33.9026L169.564 33.8979C170.234 31.1767 170.904 28.4546 171.558 25.7279C171.656 25.3151 171.809 25.1956 172.231 25.1956C177.526 25.2077 182.821 25.2072 188.116 25.2067L188.199 25.2067C189.231 25.2066 190.262 25.2065 191.293 25.2065H191.905L192.209 23.9609C192.69 21.9954 193.163 20.0581 193.644 18.0838H173.484Z" fill="#ffffff"/>
<path d="M156.237 43.7284C157.425 38.9169 158.612 34.1082 159.8 29.2995C162.187 19.6286 164.575 9.9578 166.969 0.264345H166.492C165.765 0.264345 165.039 0.265024 164.312 0.265703C162.131 0.26774 159.949 0.269777 157.766 0.253482C157.369 0.253482 157.249 0.398326 157.165 0.74233C155.145 8.9224 153.118 17.1025 151.091 25.2825C150.84 26.3001 150.585 27.314 150.323 28.3279C150.301 28.4162 150.251 28.4958 150.201 28.5764C150.18 28.6114 150.158 28.6466 150.138 28.6827L150.112 28.6541L150.089 28.629L150.035 28.5705L150.035 28.5697C149.969 28.4984 149.904 28.4266 149.839 28.3532C149.829 28.3409 149.825 28.3227 149.82 28.304C149.817 28.2898 149.813 28.2752 149.807 28.2627C148.835 26.0254 147.862 23.7884 146.889 21.5512L146.888 21.5478L146.886 21.5449C143.994 14.8948 141.102 8.24368 138.238 1.58243C137.816 0.604728 137.204 0.21365 136.203 0.260724C136.073 0.265547 135.943 0.263946 135.813 0.262338C135.748 0.261532 135.683 0.260724 135.618 0.260724C135.005 0.260724 134.393 0.261978 133.782 0.263233C132.07 0.266743 130.359 0.27025 128.648 0.246239C128.117 0.238997 127.91 0.38022 127.782 0.908901C125.36 10.7706 122.926 20.6303 120.492 30.491L120.445 30.6826C119.585 34.1656 118.725 37.6487 117.866 41.1321C117.721 41.7149 117.582 42.2976 117.439 42.8932L117.308 43.4408C117.285 43.5351 117.263 43.6297 117.24 43.7248C120.395 43.7248 123.481 43.7248 126.567 43.7139C126.68 43.7139 126.858 43.5437 126.898 43.4206C127.016 43.0389 127.109 42.649 127.202 42.2586L127.202 42.2579C127.233 42.13 127.263 42.0021 127.295 41.8744C129.398 33.2997 131.502 24.7249 133.612 16.1501C133.64 16.0386 133.718 15.9395 133.796 15.8404C133.83 15.7979 133.863 15.7554 133.893 15.712C133.931 15.7566 133.975 15.7989 134.02 15.8411C134.108 15.9256 134.196 16.0101 134.242 16.1139C135.545 19.0651 136.837 22.0199 138.129 24.9747C138.706 26.2949 139.285 27.6144 139.864 28.9339L139.875 28.9589L139.876 28.9602C141.768 33.2743 143.66 37.5876 145.516 41.9179C146.073 43.2142 146.899 43.732 148.311 43.7393C149.054 43.7413 149.773 43.7367 150.487 43.7322L150.487 43.7322C151.077 43.7285 151.664 43.7248 152.259 43.7248H156.233L156.237 43.7284Z" fill="#ffffff"/>
<path d="M84.9602 0.275215C81.3792 14.785 77.8092 29.2368 74.2319 43.7176H85.5133C85.5133 43.7176 89.1161 29.2042 90.8738 22.0851C90.923 21.8856 90.9719 21.686 91.0209 21.4863C91.237 20.6059 91.4533 19.7245 91.6817 18.8478C91.7046 18.7619 91.7807 18.6883 91.8567 18.6147C91.8896 18.5829 91.9225 18.5511 91.951 18.5183C91.9633 18.5291 91.9756 18.5399 91.988 18.5506L92.0243 18.5819L92.0248 18.5823C92.1003 18.6472 92.1764 18.7127 92.2422 18.7863C92.2767 18.8256 92.2946 18.8783 92.3127 18.9318C92.3213 18.9572 92.3299 18.9827 92.3404 19.0072C93.3139 21.291 94.2865 23.5744 95.259 25.8575C97.1113 30.2062 98.9631 34.5538 100.82 38.9015C101.318 40.0747 101.831 41.2407 102.363 42.3995C102.701 43.1418 103.276 43.6017 104.124 43.6669C104.21 43.6736 104.297 43.6814 104.383 43.6892C104.621 43.7106 104.858 43.732 105.096 43.732C107.054 43.7345 109.012 43.7337 110.971 43.7329H110.977C111.958 43.7325 112.939 43.732 113.921 43.732H114.419C118 29.2332 121.57 14.7777 125.151 0.267973H124.533C123.7 0.267973 122.868 0.268878 122.035 0.269783C119.536 0.272499 117.037 0.275216 114.539 0.253489C114.004 0.249868 113.812 0.401954 113.684 0.923393C111.778 8.775 109.849 16.6198 107.918 24.4677L107.727 25.2463C107.703 25.3477 107.64 25.4394 107.576 25.5312C107.545 25.577 107.513 25.6229 107.487 25.67C107.452 25.6324 107.414 25.5966 107.375 25.5607C107.291 25.4827 107.206 25.4047 107.166 25.3079C106.553 23.9033 105.94 22.499 105.326 21.0947L105.323 21.0875L105.321 21.084C102.488 14.5993 99.6543 8.11513 96.8676 1.6114C96.4381 0.608357 95.8268 0.264352 94.8478 0.275215C94.7095 0.275215 94.5712 0.27431 94.433 0.273405C94.2947 0.2725 94.1564 0.271594 94.0181 0.271594H84.9711L84.9602 0.275215Z" fill="#ffffff"/>
<path fill-rule="evenodd" clip-rule="evenodd" d="M270.296 2.23422C271.916 3.49799 272.691 5.20715 272.935 7.20237L272.927 7.19875C273.178 9.24796 272.697 11.1979 272.215 13.1498C272.193 13.2398 272.171 13.3298 272.148 13.4198C272.036 13.8756 271.808 14.8085 271.508 16.0311L271.502 16.0552L271.5 16.0621C270.338 20.8029 268.123 29.8416 267.479 32.3799C266.38 36.718 263.938 40.082 259.866 42.1496C257.854 43.1708 255.692 43.6886 253.439 43.7284C251.751 43.7583 250.06 43.7505 248.37 43.7427H248.369C247.601 43.7392 246.834 43.7357 246.066 43.7357C245.3 43.7357 244.534 43.74 243.767 43.7443H243.765C241.994 43.7542 240.223 43.7641 238.453 43.7212C236.514 43.6741 234.647 43.2323 233.005 42.1207C231.222 40.9148 230.323 39.1912 230.032 37.0982C229.741 34.9943 230.214 32.9846 230.713 30.9677C230.877 30.3024 231.201 28.9788 231.609 27.3158L231.678 27.0318C232.95 21.8407 234.957 13.6524 235.495 11.5405C236.666 6.94528 239.301 3.47626 243.752 1.52811C245.575 0.731466 247.497 0.311419 249.484 0.300555C254.447 0.275208 259.411 0.253481 264.372 0.31504C266.515 0.344009 268.56 0.87631 270.296 2.23422ZM256.908 35.3057C258.429 34.2556 259.2 32.7167 259.637 31.0003L259.63 30.9966C260.325 28.2555 263.393 16.0379 263.898 14.0173C263.937 13.8632 263.977 13.7093 264.016 13.5554L264.017 13.555C264.306 12.4357 264.594 11.3164 264.495 10.1355C264.408 9.10345 263.935 8.31043 262.956 7.93384C262.315 7.6876 261.62 7.46671 260.947 7.45947C256.988 7.41602 253.028 7.40516 249.069 7.45947C247.77 7.47758 246.518 7.85417 245.466 8.69065C244.272 9.63937 243.69 10.9538 243.337 12.3805C242.704 14.9443 240.222 25.1268 239.938 26.3073L239.819 26.8025L239.819 26.8029C239.392 28.571 238.965 30.3381 238.639 32.1264C238.29 34.0528 239.083 35.4832 240.702 36.0625C241.197 36.24 241.732 36.3812 242.253 36.3921C244.127 36.4319 251.078 36.5079 252.679 36.4717C254.178 36.4391 255.638 36.182 256.908 35.3057Z" fill="#ffffff"/>
<path d="M46.1265 0.275218H81.4957L78.628 11.7577H57.852L56.6583 16.61H73.6278L71.0549 27.1438H54.0854L52.9245 31.6231H73.5732L70.6437 43.7248H35.3946L46.1265 0.275218Z" fill="#ffffff"/>
<path d="M19.7244 43.7248L26.7079 14.9914H25.86C25.3524 14.9914 24.8583 14.9893 24.3772 14.9874C16.6766 14.9558 12.3294 14.9379 10.0551 23.472L5.22589 43.7248H19.7244Z" fill="#ffffff"/>
<path d="M42.5674 0.220893L39.6634 11.7686H0L2.79125 0.220893H42.5674Z" fill="#ffffff"/>
</svg>
